<?xml version="1.0" encoding="utf-8"?>
<!-- Generator: Adobe Illustrator 18.1.1, SVG Export Plug-In . SVG Version: 6.00 Build 0)  -->
<!DOCTYPE svg PUBLIC "-//W3C//DTD SVG 1.1//EN" "http://www.w3.org/Graphics/SVG/1.1/DTD/svg11.dtd">
<svg version="1.1" id="Layer_1" xmlns="http://www.w3.org/2000/svg" xmlns:xlink="http://www.w3.org/1999/xlink" x="0px" y="0px"
	 viewBox="0 0 39.7 46.9" enable-background="new 0 0 39.7 46.9" xml:space="preserve">
<path fill="#8DC63F" d="M2.9,15.2c-1.6,0-2.9,1.3-2.9,2.9l0,12.1c0,1.6,1.3,2.9,2.9,2.9c1.6,0,2.9-1.3,2.9-2.9l0-12.1
	C5.8,16.5,4.5,15.2,2.9,15.2 M26.2,4.3l2-3.7c0.1-0.2,0-0.4-0.2-0.5c-0.2-0.1-0.4,0-0.5,0.2l-2,3.7c-1.7-0.8-3.6-1.2-5.7-1.2
	c-2,0-3.9,0.4-5.7,1.2l-2-3.7C12,0,11.8-0.1,11.6,0.1c-0.2,0.1-0.3,0.4-0.2,0.5l2,3.7c-4,2-6.7,5.9-6.6,10.4l26.1,0
	C32.9,10.2,30.2,6.3,26.2,4.3 M13.9,10c-0.6,0-1.1-0.5-1.1-1.1c0-0.6,0.5-1.1,1.1-1.1c0.6,0,1.1,0.5,1.1,1.1C15,9.5,14.5,10,13.9,10
	 M25.8,10c-0.6,0-1.1-0.5-1.1-1.1c0-0.6,0.5-1.1,1.1-1.1c0.6,0,1.1,0.5,1.1,1.1C26.9,9.5,26.4,10,25.8,10 M6.9,15.7l0,18.8
	c0,1.7,1.4,3.1,3.1,3.1l2.1,0l0,6.4c0,1.6,1.3,2.9,2.9,2.9c1.6,0,2.9-1.3,2.9-2.9l0-6.4l3.9,0l0,6.4c0,1.6,1.3,2.9,2.9,2.9
	c1.6,0,2.9-1.3,2.9-2.9l0-6.4l2.1,0c1.7,0,3.1-1.4,3.1-3.1l0-18.8L6.9,15.7z M39.7,18c0-1.6-1.3-2.9-2.9-2.9c-1.6,0-2.9,1.3-2.9,2.9
	l0,12.1c0,1.6,1.3,2.9,2.9,2.9c1.6,0,2.9-1.3,2.9-2.9L39.7,18z"/>
</svg>
