<?xml version="1.0" encoding="utf-8"?>
<!-- Generator: Adobe Illustrator 18.1.1, SVG Export Plug-In . SVG Version: 6.00 Build 0)  -->
<!DOCTYPE svg PUBLIC "-//W3C//DTD SVG 1.1//EN" "http://www.w3.org/Graphics/SVG/1.1/DTD/svg11.dtd">
<svg version="1.1" id="Layer_1" xmlns="http://www.w3.org/2000/svg" xmlns:xlink="http://www.w3.org/1999/xlink" x="0px" y="0px"
	 viewBox="0 0 33 40.5" enable-background="new 0 0 33 40.5" xml:space="preserve">
<g>
	<path fill-rule="evenodd" clip-rule="evenodd" fill="#00AEEF" d="M18.2,3.5C20.9,0,24.6,0,24.6,0s0.6,3.3-2.1,6.5
		c-2.8,3.4-6,2.8-6,2.8S15.8,6.6,18.2,3.5z"/>
	<path fill-rule="evenodd" clip-rule="evenodd" fill="#00AEEF" d="M16.8,11.6c1.4,0,3.9-1.9,7.2-1.9c5.7,0,7.9,4,7.9,4
		s-4.4,2.2-4.4,7.7c0,6.1,5.5,8.2,5.5,8.2s-3.8,10.7-9,10.7c-2.4,0-4.2-1.6-6.7-1.6c-2.5,0-5.1,1.7-6.7,1.7C5.9,40.5,0,30.3,0,22.1
		C0,14.1,5,9.9,9.7,9.9C12.8,9.9,15.2,11.6,16.8,11.6z"/>
</g>
</svg>
