<?xml version="1.0" encoding="utf-8"?>
<!-- Generator: Adobe Illustrator 18.1.1, SVG Export Plug-In . SVG Version: 6.00 Build 0)  -->
<!DOCTYPE svg PUBLIC "-//W3C//DTD SVG 1.1//EN" "http://www.w3.org/Graphics/SVG/1.1/DTD/svg11.dtd">
<svg version="1.1" id="Layer_1" xmlns="http://www.w3.org/2000/svg" xmlns:xlink="http://www.w3.org/1999/xlink" x="0px" y="0px"
	 viewBox="0 0 35.2 43.6" enable-background="new 0 0 35.2 43.6" xml:space="preserve">
<g>
	<g>
		<line fill="#D662A5" x1="6.4" y1="42.1" x2="17.5" y2="10.9"/>
		<path fill="#D662A5" d="M6.4,43.6c-0.2,0-0.3,0-0.5-0.1c-0.8-0.3-1.2-1.1-0.9-1.9l11.1-31.1c0.3-0.8,1.1-1.2,1.9-0.9
			c0.8,0.3,1.2,1.1,0.9,1.9L7.8,42.6C7.6,43.2,7,43.6,6.4,43.6z"/>
	</g>
	<g>
		<line fill="#D662A5" x1="28.6" y1="42.1" x2="17.5" y2="10.9"/>
		<path fill="#D662A5" d="M28.6,43.6c-0.6,0-1.2-0.4-1.4-1L16.1,11.5c-0.3-0.8,0.1-1.7,0.9-1.9c0.8-0.3,1.7,0.1,1.9,0.9L30,41.5
			c0.3,0.8-0.1,1.7-0.9,1.9C29,43.5,28.8,43.6,28.6,43.6z"/>
	</g>
	<g>
		<line fill="#D662A5" x1="8.2" y1="38.9" x2="27" y2="38.9"/>
		<path fill="#D662A5" d="M27,39.9H8.2c-0.6,0-1-0.5-1-1s0.5-1,1-1H27c0.6,0,1,0.5,1,1S27.6,39.9,27,39.9z"/>
	</g>
	<g>
		<path fill="#D662A5" d="M21.3,24.3h-7.3c-0.6,0-1-0.5-1-1c0-0.6,0.5-1,1-1h7.3c0.6,0,1,0.5,1,1C22.3,23.9,21.8,24.3,21.3,24.3z"/>
	</g>
	<g>
		<path fill="#D662A5" d="M17.6,39.2L9,34c-0.5-0.3-0.6-0.9-0.3-1.4c0.3-0.5,0.9-0.6,1.4-0.3l7.5,4.5l7.1-4.9
			c0.5-0.3,1.1-0.2,1.4,0.3c0.3,0.5,0.2,1.1-0.3,1.4L17.6,39.2z"/>
	</g>
	<g>
		<path fill="#D662A5" d="M25.3,33.7c-0.2,0-0.4-0.1-0.6-0.2l-12.2-9.4c-0.4-0.3-0.5-1-0.2-1.4s1-0.5,1.4-0.2l12.2,9.4
			c0.4,0.3,0.5,1,0.2,1.4C25.9,33.6,25.6,33.7,25.3,33.7z"/>
	</g>
	<g>
		<path fill="#D662A5" d="M9.6,34.1c-0.3,0-0.6-0.1-0.8-0.4c-0.3-0.4-0.3-1.1,0.2-1.4l12.4-9.8c0.4-0.3,1.1-0.3,1.4,0.2
			c0.3,0.4,0.3,1.1-0.2,1.4l-12.4,9.8C10,34.1,9.8,34.1,9.6,34.1z"/>
	</g>
	<g>
		<circle fill="#D662A5" cx="17.5" cy="7" r="1.9"/>
	</g>
	<g>
		<path fill="#D662A5" d="M9.9,11.5c-0.3,0-0.5-0.1-0.7-0.3C8.1,10,7.5,8.6,7.5,7c0-1.6,0.6-3.1,1.7-4.2c0.4-0.4,1-0.4,1.4,0
			c0.4,0.4,0.4,1,0,1.4C9.9,4.9,9.5,5.9,9.5,7c0,1,0.4,2,1.1,2.8c0.4,0.4,0.4,1,0,1.4C10.4,11.4,10.1,11.5,9.9,11.5z"/>
	</g>
	<g>
		<path fill="#D662A5" d="M25.1,11.6c-0.3,0-0.5-0.1-0.7-0.3c-0.4-0.4-0.4-1,0-1.4c0.8-0.8,1.2-1.8,1.2-2.8c0-1-0.4-2-1.1-2.8
			c-0.4-0.4-0.4-1,0-1.4c0.4-0.4,1-0.4,1.4,0C27,4,27.6,5.5,27.6,7c0,1.6-0.6,3.1-1.8,4.3C25.6,11.5,25.4,11.6,25.1,11.6z"/>
	</g>
	<g>
		<path fill="#D662A5" d="M3.4,14c-0.3,0-0.5-0.1-0.7-0.3C1,11.9,0,9.5,0,7c0-2.5,1-4.9,2.8-6.7c0.4-0.4,1-0.4,1.4,0
			c0.4,0.4,0.4,1,0,1.4C2.8,3.1,2,5,2,7c0,2,0.8,3.8,2.1,5.3c0.4,0.4,0.4,1,0,1.4C3.9,13.9,3.7,14,3.4,14z"/>
	</g>
	<g>
		<path fill="#D662A5" d="M31.7,14.1c-0.3,0-0.5-0.1-0.7-0.3c-0.4-0.4-0.4-1,0-1.4c1.4-1.4,2.2-3.3,2.2-5.3c0-2-0.8-3.8-2.1-5.2
			c-0.4-0.4-0.4-1,0-1.4c0.4-0.4,1-0.4,1.4,0c1.7,1.8,2.7,4.1,2.7,6.6c0,2.5-1,4.9-2.8,6.7C32.3,14,32,14.1,31.7,14.1z"/>
	</g>
</g>
</svg>
