<?xml version="1.0" encoding="utf-8"?>
<!-- Generator: Adobe Illustrator 18.1.1, SVG Export Plug-In . SVG Version: 6.00 Build 0)  -->
<!DOCTYPE svg PUBLIC "-//W3C//DTD SVG 1.1//EN" "http://www.w3.org/Graphics/SVG/1.1/DTD/svg11.dtd">
<svg version="1.1" id="Layer_1" xmlns="http://www.w3.org/2000/svg" xmlns:xlink="http://www.w3.org/1999/xlink" x="0px" y="0px"
	 viewBox="0 0 29.5 58.7" enable-background="new 0 0 29.5 58.7" xml:space="preserve">
<g>
	<g>
		<path d="M15.2,55.9c-1.1,0-1.9-0.9-1.9-1.9s0.9-1.9,1.9-1.9c1.1,0,1.9,0.9,1.9,1.9S16.3,55.9,15.2,55.9z M15.2,52.6
			c-0.8,0-1.4,0.6-1.4,1.4s0.6,1.4,1.4,1.4c0.8,0,1.4-0.6,1.4-1.4S16,52.6,15.2,52.6z"/>
	</g>
	<g>
		<path d="M26.9,51.2H2.7V7.5h24.2V51.2z M3.2,50.7h23.2V8H3.2V50.7z"/>
	</g>
	<g>
		<g>
			<path d="M17.2,4.1c0.1,0,0.2,0.1,0.2,0.2c0,0.1-0.1,0.2-0.2,0.2h-4.8c-0.1,0-0.2-0.1-0.2-0.2c0-0.1,0.1-0.2,0.2-0.2H17.2
				 M17.2,3.6h-4.8c-0.4,0-0.8,0.3-0.8,0.7s0.3,0.8,0.8,0.8h4.8c0.4,0,0.8-0.3,0.8-0.8S17.6,3.6,17.2,3.6L17.2,3.6z"/>
		</g>
	</g>
	<g>
		<path d="M9.8,5C9.4,5,9.1,4.7,9.1,4.3s0.3-0.7,0.7-0.7s0.7,0.3,0.7,0.7S10.2,5,9.8,5z M9.8,4.1c-0.1,0-0.2,0.1-0.2,0.2
			s0.1,0.2,0.2,0.2S10,4.4,10,4.3S9.9,4.1,9.8,4.1z"/>
	</g>
	<g>
		<path d="M25.2,58.7H4.3c-2.4,0-4.3-1.9-4.3-4.3V4.3C0,1.9,1.9,0,4.3,0h20.9c2.4,0,4.3,1.9,4.3,4.3v50.1
			C29.5,56.8,27.6,58.7,25.2,58.7z M4.5,1.5c-1.7,0-3,1.4-3,3v49.6c0,1.7,1.3,3,3,3h20.6c1.7,0,3-1.4,3-3V4.5c0-1.7-1.3-3-3-3H4.5z"
			/>
	</g>
</g>
</svg>
