<?xml version="1.0" encoding="utf-8"?>
<!-- Generator: Adobe Illustrator 18.1.1, SVG Export Plug-In . SVG Version: 6.00 Build 0)  -->
<!DOCTYPE svg PUBLIC "-//W3C//DTD SVG 1.1//EN" "http://www.w3.org/Graphics/SVG/1.1/DTD/svg11.dtd">
<svg version="1.1" id="Layer_1" xmlns="http://www.w3.org/2000/svg" xmlns:xlink="http://www.w3.org/1999/xlink" x="0px" y="0px"
	 viewBox="0 0 35.2 35.2" enable-background="new 0 0 35.2 35.2" xml:space="preserve">
<g>
	<linearGradient id="SVGID_1_" gradientUnits="userSpaceOnUse" x1="0" y1="17.598" x2="35.196" y2="17.598">
		<stop  offset="0" style="stop-color:#5276BA"/>
		<stop  offset="1" style="stop-color:#45ADE2"/>
	</linearGradient>
	<path fill="none" stroke="url(#SVGID_1_)" stroke-width="2" stroke-miterlimit="10" d="M17.6,34.2L17.6,34.2
		C8.4,34.2,1,26.8,1,17.6v0C1,8.4,8.4,1,17.6,1h0c9.2,0,16.6,7.4,16.6,16.6v0C34.2,26.8,26.8,34.2,17.6,34.2z"/>
	<linearGradient id="SVGID_2_" gradientUnits="userSpaceOnUse" x1="9.1642" y1="17.9517" x2="25.6921" y2="17.9517">
		<stop  offset="0" style="stop-color:#5276BA"/>
		<stop  offset="1" style="stop-color:#45ADE2"/>
	</linearGradient>
	<path fill="url(#SVGID_2_)" d="M24.4,24.9H10.5c-0.7,0-1.3-0.6-1.3-1.3V12.3c0-0.7,0.6-1.3,1.3-1.3h13.9c0.7,0,1.3,0.6,1.3,1.3
		v11.3C25.7,24.3,25.1,24.9,24.4,24.9z M13.2,12.4H11c-0.1,0-0.2,0.1-0.2,0.2v2.2c0,0.1,0.1,0.2,0.2,0.2h2.2c0.1,0,0.2-0.1,0.2-0.2
		v-2.2C13.4,12.5,13.3,12.4,13.2,12.4z M23.9,13.1h-9.5c-0.1,0-0.2,0.1-0.2,0.2v1c0,0.1,0.1,0.2,0.2,0.2h9.5c0.1,0,0.2-0.1,0.2-0.2
		v-1C24.1,13.2,24,13.1,23.9,13.1z M23.9,16.2H11c-0.1,0-0.2,0.1-0.2,0.2v6.6c0,0.1,0.1,0.2,0.2,0.2h12.9c0.1,0,0.2-0.1,0.2-0.2
		v-6.6C24.1,16.4,24,16.2,23.9,16.2z"/>
</g>
</svg>
