<?xml version="1.0" encoding="utf-8"?>
<!-- Generator: Adobe Illustrator 18.1.1, SVG Export Plug-In . SVG Version: 6.00 Build 0)  -->
<!DOCTYPE svg PUBLIC "-//W3C//DTD SVG 1.1//EN" "http://www.w3.org/Graphics/SVG/1.1/DTD/svg11.dtd">
<svg version="1.1" id="Layer_1" xmlns="http://www.w3.org/2000/svg" xmlns:xlink="http://www.w3.org/1999/xlink" x="0px" y="0px"
	 viewBox="0 0 35.2 35.2" enable-background="new 0 0 35.2 35.2" xml:space="preserve">
<g>
	<linearGradient id="SVGID_1_" gradientUnits="userSpaceOnUse" x1="0" y1="17.598" x2="35.196" y2="17.598">
		<stop  offset="0" style="stop-color:#4FBA69"/>
		<stop  offset="1" style="stop-color:#49BFAE"/>
	</linearGradient>
	<path fill="none" stroke="url(#SVGID_1_)" stroke-width="2" stroke-miterlimit="10" d="M17.6,34.2L17.6,34.2
		C8.4,34.2,1,26.8,1,17.6v0C1,8.4,8.4,1,17.6,1h0c9.2,0,16.6,7.4,16.6,16.6v0C34.2,26.8,26.8,34.2,17.6,34.2z"/>
	<linearGradient id="SVGID_2_" gradientUnits="userSpaceOnUse" x1="12.6546" y1="17.7185" x2="24.1599" y2="17.7185">
		<stop  offset="0" style="stop-color:#4FBA69"/>
		<stop  offset="1" style="stop-color:#49BFAE"/>
	</linearGradient>
	<path fill="url(#SVGID_2_)" d="M12.7,12c0,0-0.1-0.6,0.4-0.9c0.5-0.3,1,0,1,0l9.5,5.8c0,0,0.5,0.2,0.5,0.9c0,0.6-0.5,0.9-0.5,0.9
		l-9.5,5.7c0,0-0.7,0.3-1.1-0.1c-0.4-0.4-0.4-0.8-0.4-0.8L12.7,12z"/>
</g>
</svg>
