<?xml version="1.0" encoding="utf-8"?>
<!-- Generator: Adobe Illustrator 18.1.1, SVG Export Plug-In . SVG Version: 6.00 Build 0)  -->
<!DOCTYPE svg PUBLIC "-//W3C//DTD SVG 1.1//EN" "http://www.w3.org/Graphics/SVG/1.1/DTD/svg11.dtd">
<svg version="1.1" id="Layer_1" xmlns="http://www.w3.org/2000/svg" xmlns:xlink="http://www.w3.org/1999/xlink" x="0px" y="0px"
	 viewBox="0 0 23.5 64.4" enable-background="new 0 0 23.5 64.4" xml:space="preserve">
<g>
	<g>
		<circle fill="#3E8ACA" cx="11.5" cy="6" r="6"/>
		<path fill="#3E8ACA" d="M1.6,15h0.8c0.9,0,1.6,0.7,1.6,1.6V35c0,0.9-0.7,1.6-1.6,1.6H1.6C0.7,36.6,0,35.9,0,35l0-18.4
			C0,15.7,0.7,15,1.6,15z"/>
		<path fill="#3E8ACA" d="M21.1,15h0.8c0.9,0,1.6,0.7,1.6,1.6V35c0,0.9-0.7,1.6-1.6,1.6h-0.8c-0.9,0-1.6-0.7-1.6-1.6V16.6
			C19.4,15.7,20.2,15,21.1,15z"/>
		<path fill="#3E8ACA" d="M20.1,13.1H3.4c-1.9,0-3.4,1.5-3.4,3.4l0,1.7c0,1.9,1.5,3.4,3.4,3.4h16.7c1.9,0,3.4-1.5,3.4-3.4v-1.7
			C23.5,14.6,22,13.1,20.1,13.1z"/>
		<path fill="#3E8ACA" d="M8.8,64.4H7.6c-1.3,0-2.4-1.1-2.4-2.4V24c0-1.3,1.1-2.4,2.4-2.4h1.2c1.3,0,2.4,1.1,2.4,2.4v37.9
			C11.3,63.3,10.2,64.4,8.8,64.4z"/>
		<path fill="#3E8ACA" d="M15.9,64.4h-1.2c-1.3,0-2.4-1.1-2.4-2.4V24c0-1.3,1.1-2.4,2.4-2.4h1.2c1.3,0,2.4,1.1,2.4,2.4v37.9
			C18.3,63.3,17.2,64.4,15.9,64.4z"/>
		<rect x="5.2" y="20.7" fill="#3E8ACA" width="13.1" height="22.3"/>
	</g>
	<path fill="#3E8ACA" d="M12.2,43.8c0-0.3-0.2-0.5-0.5-0.5s-0.5,0.2-0.5,0.5H11v-1.2h1.8v1.4L12.2,43.8z"/>
	<path fill="#3E8ACA" d="M5.2,22.5c0-0.3-0.3-0.6-0.6-0.6s-0.6,0.3-0.6,0.6H3.8v-1.7h2v1.3L5.2,22.5z"/>
	<path fill="#3E8ACA" d="M19.4,22.5c0-0.3-0.3-0.6-0.6-0.6s-0.6,0.3-0.6,0.6H18l-0.1-1.3l2,0v1.3H19.4z"/>
</g>
</svg>
