<?xml version="1.0" encoding="utf-8"?>
<!-- Generator: Adobe Illustrator 18.1.1, SVG Export Plug-In . SVG Version: 6.00 Build 0)  -->
<!DOCTYPE svg PUBLIC "-//W3C//DTD SVG 1.1//EN" "http://www.w3.org/Graphics/SVG/1.1/DTD/svg11.dtd">
<svg version="1.1" id="Layer_1" xmlns="http://www.w3.org/2000/svg" xmlns:xlink="http://www.w3.org/1999/xlink" x="0px" y="0px"
	 viewBox="0 0 8 20.7" enable-background="new 0 0 8 20.7" xml:space="preserve">
<g>
	<rect x="1.9" y="5.3" fill="#CCCCCC" width="4.1" height="6.9"/>
	<circle fill="#CCCCCC" cx="4" cy="2" r="2"/>
	<path fill="#CCCCCC" d="M8,5.5L8,11c0,0.4-0.4,0.8-0.8,0.8h0c-0.4,0-0.8-0.4-0.8-0.8l0-5.5c0-0.4,0.4-0.8,0.8-0.8h0
		C7.6,4.7,8,5,8,5.5z"/>
	<path fill="#CCCCCC" d="M1.6,5.5l0,5.5c0,0.4-0.4,0.8-0.8,0.8h0C0.4,11.8,0,11.4,0,11l0-5.5C0,5,0.4,4.7,0.8,4.7h0
		C1.2,4.7,1.6,5,1.6,5.5z"/>
	<path fill="#CCCCCC" d="M0.9,4.5l6.1,0C7.6,4.5,8,4.9,8,5.4v0C8,5.9,7.6,6.3,7,6.3l-6.1,0C0.4,6.3,0,5.9,0,5.4v0
		C0,4.9,0.4,4.5,0.9,4.5z"/>
	<path fill="#CCCCCC" d="M1.9,19.8l0-7.5c0-0.5,0.4-0.9,0.9-0.9h0c0.5,0,0.9,0.4,0.9,0.9v7.5c0,0.5-0.4,0.9-0.9,0.9h0
		C2.3,20.7,1.9,20.3,1.9,19.8z"/>
	<path fill="#CCCCCC" d="M4.2,19.8v-7.5c0-0.5,0.4-0.9,0.9-0.9h0c0.5,0,0.9,0.4,0.9,0.9v7.5c0,0.5-0.4,0.9-0.9,0.9h0
		C4.6,20.7,4.2,20.3,4.2,19.8z"/>
</g>
</svg>
