<?xml version="1.0" encoding="utf-8"?>
<!-- Generator: Adobe Illustrator 18.1.1, SVG Export Plug-In . SVG Version: 6.00 Build 0)  -->
<!DOCTYPE svg PUBLIC "-//W3C//DTD SVG 1.1//EN" "http://www.w3.org/Graphics/SVG/1.1/DTD/svg11.dtd">
<svg version="1.1" id="Layer_1" xmlns="http://www.w3.org/2000/svg" xmlns:xlink="http://www.w3.org/1999/xlink" x="0px" y="0px"
	 viewBox="0 0 35.2 35.2" enable-background="new 0 0 35.2 35.2" xml:space="preserve">
<g>
	<linearGradient id="SVGID_1_" gradientUnits="userSpaceOnUse" x1="0" y1="17.598" x2="35.196" y2="17.598">
		<stop  offset="0" style="stop-color:#FCB973"/>
		<stop  offset="3.101909e-02" style="stop-color:#FDBA12"/>
		<stop  offset="1" style="stop-color:#FBCB2E"/>
	</linearGradient>
	<path fill="none" stroke="url(#SVGID_1_)" stroke-width="2" stroke-miterlimit="10" d="M17.6,34.2L17.6,34.2
		C8.4,34.2,1,26.8,1,17.6v0C1,8.4,8.4,1,17.6,1h0c9.2,0,16.6,7.4,16.6,16.6v0C34.2,26.8,26.8,34.2,17.6,34.2z"/>
	<g>
		<linearGradient id="SVGID_2_" gradientUnits="userSpaceOnUse" x1="12.2395" y1="17.7185" x2="23.568" y2="17.7185">
			<stop  offset="0" style="stop-color:#FCB973"/>
			<stop  offset="3.101909e-02" style="stop-color:#FDBA12"/>
			<stop  offset="1" style="stop-color:#FBCB2E"/>
		</linearGradient>
		<path fill="url(#SVGID_2_)" d="M18.1,8.5c0.5,0,0.9,0.4,0.9,0.9v0.5c1.3,0.1,2.3,0.6,3.3,1.2c0.3,0.2,0.6,0.5,0.6,1
			c0,0.7-0.5,1.2-1.2,1.2c-0.2,0-0.4-0.1-0.6-0.2c-0.7-0.4-1.5-0.8-2.2-0.9v4.1c3.2,0.8,4.6,2.1,4.6,4.4c0,2.3-1.8,3.9-4.5,4.2V26
			c0,0.5-0.4,0.9-0.9,0.9c-0.5,0-0.9-0.4-0.9-0.9v-1.3c-1.6-0.2-3.1-0.7-4.4-1.7c-0.4-0.2-0.6-0.6-0.6-1c0-0.7,0.5-1.2,1.2-1.2
			c0.3,0,0.5,0.1,0.7,0.2c1,0.7,2,1.2,3.2,1.4v-4.2c-3.1-0.8-4.6-2-4.6-4.4c0-2.3,1.8-3.9,4.5-4.1V9.4C17.2,8.9,17.6,8.5,18.1,8.5z
			 M17.3,15.8V12c-1.4,0.1-2,0.9-2,1.8C15.2,14.7,15.6,15.2,17.3,15.8z M18.9,18.7v3.9c1.4-0.1,2.1-0.8,2.1-1.9
			C21.1,19.8,20.6,19.2,18.9,18.7z"/>
	</g>
</g>
</svg>
