<?xml version="1.0" encoding="utf-8"?>
<!-- Generator: Adobe Illustrator 18.1.1, SVG Export Plug-In . SVG Version: 6.00 Build 0)  -->
<!DOCTYPE svg PUBLIC "-//W3C//DTD SVG 1.1//EN" "http://www.w3.org/Graphics/SVG/1.1/DTD/svg11.dtd">
<svg version="1.1" id="Layer_1" xmlns="http://www.w3.org/2000/svg" xmlns:xlink="http://www.w3.org/1999/xlink" x="0px" y="0px"
	 viewBox="0 0 39.9 45.2" enable-background="new 0 0 39.9 45.2" xml:space="preserve">
<g>
	<g>
		<path fill="#FFFFFF" d="M36.3,44.5H3.5c-1.6,0-2.8-1.3-2.8-2.8V8.6C0.7,7,2,5.8,3.5,5.8l16.4-3.2l16.4,3.2c1.6,0,2.8,1.3,2.8,2.8
			v33.1C39.2,43.2,37.9,44.5,36.3,44.5z"/>
		<path fill="#3F459C" d="M36.3,45.2H3.5c-2,0-3.5-1.6-3.5-3.5V8.6C0,6.6,1.6,5,3.5,5l16.4-3.2l0.1,0L36.5,5c0,0,0,0,0,0
			c1.8,0,3.4,1.6,3.4,3.5v33.1C39.9,43.6,38.3,45.2,36.3,45.2z M19.9,3.3L3.7,6.5c-1.3,0-2.2,0.9-2.2,2.1v33.1
			c0,1.1,0.9,2.1,2.1,2.1h32.8c1.1,0,2.1-0.9,2.1-2.1V8.6c0-1.1-0.9-2.1-2.1-2.1L19.9,3.3z"/>
	</g>
	<g>
		<path fill="#FFFFFF" d="M27.5,1.9v7H12.4v-7C12.4,1.9,19.5-0.7,27.5,1.9z"/>
		<path fill="#3F459C" d="M28.2,9.6H11.6V1.4l0.5-0.2C12.3,1.1,15.5,0,20,0c2.7,0,5.3,0.4,7.7,1.2l0.5,0.2V9.6z M13.1,8.2h13.7V2.4
			c-2.1-0.6-4.4-1-6.8-1c-3.3,0-5.9,0.6-6.9,0.9V8.2z"/>
	</g>
	<g>
		<path fill="#FFFFFF" d="M18.6,9.3l-4.4,4.9c-0.3,0.4-1,0.3-1.2-0.2L9,5.3C8.9,5,8.9,4.7,9.2,4.5l2.3-2.3c0.3-0.3,0.7-0.3,1,0
			l6.1,6.1C18.9,8.6,18.9,9,18.6,9.3z"/>
		<path fill="#3F459C" d="M13.7,15.2c-0.6,0-1.1-0.3-1.3-0.8L8.4,5.6C8.1,5,8.2,4.4,8.6,4l2.3-2.3c0.5-0.6,1.5-0.6,2.1,0l6.1,6.1
			c0.5,0.5,0.6,1.4,0.1,2l-4.4,4.9C14.5,15,14.2,15.2,13.7,15.2z M12,2.7L9.7,5l4.1,8.7l4.4-4.9L12,2.7z"/>
	</g>
	<g>
		<path fill="#FFFFFF" d="M21.2,9.3l4.4,4.9c0.3,0.4,1,0.3,1.2-0.2l4.1-8.7c0.1-0.3,0.1-0.6-0.1-0.8l-2.3-2.3c-0.3-0.3-0.7-0.3-1,0
			l-6.1,6.1C20.9,8.6,20.9,9,21.2,9.3z"/>
		<path fill="#3F459C" d="M26.1,15.2C26.1,15.2,26.1,15.2,26.1,15.2c-0.4,0-0.8-0.2-1.1-0.5l-4.4-4.9c-0.5-0.6-0.5-1.5,0.1-2
			l6.1-6.1c0.5-0.6,1.5-0.5,2.1,0L31.2,4c0.4,0.4,0.5,1.1,0.3,1.6l-4.1,8.7C27.1,14.9,26.6,15.2,26.1,15.2z M27.8,2.7l-6.1,6.1
			l4.4,4.9L30.1,5L27.8,2.7z"/>
	</g>
	<g>
		<rect x="16.9" y="10.5" fill="#3F459C" width="1.5" height="34"/>
	</g>
	<g>
		<path fill="#3F459C" d="M22.4,45.2c-0.4,0-0.7-0.3-0.7-0.7V15.1c0-0.4,0.3-0.7,0.7-0.7c0.4,0,0.7,0.3,0.7,0.7v29.4
			C23.1,44.9,22.8,45.2,22.4,45.2z"/>
	</g>
	<g>
		<circle fill="#3F459C" cx="19.9" cy="11.7" r="0.7"/>
	</g>
	<g>
		<circle fill="#3F459C" cx="19.9" cy="20.1" r="0.7"/>
	</g>
	<g>
		<circle fill="#3F459C" cx="19.9" cy="29.1" r="0.7"/>
	</g>
	<g>
		<circle fill="#3F459C" cx="19.9" cy="38.9" r="0.7"/>
	</g>
	<g>
		<path fill="#3F459C" d="M35.9,23.6c-0.4,0-0.7-0.3-0.7-0.7v-1.8h-7.3v1.8c0,0.4-0.3,0.7-0.7,0.7c-0.4,0-0.7-0.3-0.7-0.7v-2.1
			c0-0.7,0.5-1.2,1.2-1.2h7.8c0.7,0,1.2,0.5,1.2,1.2v2.1C36.7,23.3,36.3,23.6,35.9,23.6z"/>
	</g>
	<g>
		<path fill="#3F459C" d="M35.9,23.6h-8.8c-0.4,0-0.7-0.3-0.7-0.7c0-0.4,0.3-0.7,0.7-0.7h8.8c0.4,0,0.7,0.3,0.7,0.7
			C36.7,23.3,36.3,23.6,35.9,23.6z"/>
	</g>
</g>
</svg>
