<?xml version="1.0" encoding="utf-8"?>
<!-- Generator: Adobe Illustrator 18.1.1, SVG Export Plug-In . SVG Version: 6.00 Build 0)  -->
<!DOCTYPE svg PUBLIC "-//W3C//DTD SVG 1.1//EN" "http://www.w3.org/Graphics/SVG/1.1/DTD/svg11.dtd">
<svg version="1.1" id="Layer_1" xmlns="http://www.w3.org/2000/svg" xmlns:xlink="http://www.w3.org/1999/xlink" x="0px" y="0px"
	 viewBox="0 0 45.2 42.5" enable-background="new 0 0 45.2 42.5" xml:space="preserve">
<g>
	<g>
		<path fill="#FFFFFF" stroke="#000000" stroke-miterlimit="10" d="M36.3,16.9"/>
	</g>
	<g>
		<g>
			<path fill="#FFFFFF" d="M22.6,1.6c-3.7,0-5.8-0.9-5.8-0.9l-5.9,0.6c-1.1,0-2.8,0.9-3.2,2l-6.9,8.8c0,0,2.5,4.4,5.3,5.4l4-2.6v2
				h25.1v-2l4,2.6c2.8-1,5.3-5.4,5.3-5.4l-6.9-8.8c-0.5-1.1-2.1-2-3.2-2l-5.9-0.6C28.4,0.7,26.3,1.6,22.6,1.6"/>
			<path fill="#EF4136" d="M39.1,18.3l-3.2-2.1v1.5H9.4v-1.5l-3.2,2.1l-0.3-0.1c-3-1.1-5.6-5.5-5.7-5.7L0,12l7.1-9.1
				c0.6-1.3,2.5-2.3,3.8-2.3l6-0.6l0.2,0.1c0,0,2,0.9,5.5,0.9l0,0.7l0-0.7c3.5,0,5.5-0.9,5.5-0.9L28.3,0l6.1,0.6c0,0,0,0,0,0
				c1.3,0,3.1,1,3.8,2.3l7.1,9.1L45,12.4c-0.1,0.2-2.7,4.7-5.7,5.7L39.1,18.3z M34.5,13.7l4.7,3c2-0.9,3.8-3.6,4.4-4.6l-6.7-8.6
				c-0.3-0.8-1.8-1.6-2.6-1.6l-5.8-0.6c-0.6,0.2-2.6,0.9-5.9,0.9c-0.1,0-0.1,0-0.2,0c-3.1,0-5.2-0.7-5.7-0.9L11,1.9
				c-0.9,0-2.4,0.8-2.7,1.6L8.2,3.7l-6.6,8.5c0.6,1,2.5,3.7,4.4,4.6l4.7-3v2.6h23.8V13.7z"/>
		</g>
	</g>
	<g>
		<path fill="#FFFFFF" stroke="#000000" stroke-miterlimit="10" d="M8.9,17"/>
	</g>
	<g>
		<g>
			<path fill="#FFFFFF" d="M22.6,8.5c-3.4-0.1-6-2.2-6-4.7l0-2.7c0,0,4.6,1.5,12,0l0,2.7C28.6,6.2,26,8.4,22.6,8.5L22.6,8.5"/>
			<path fill="#EF4136" d="M22.6,9.1L22.6,9.1C19,9.1,16,6.6,16,3.7V0.1l0.9,0.3c0,0,2,0.6,5.4,0.6c2,0,4.1-0.2,6.2-0.7l0.8-0.2v3.5
				C29.3,6.6,26.3,9.1,22.6,9.1L22.6,9.1z M17.3,1.9v1.8c0,2.2,2.4,4,5.3,4.1c2.9-0.1,5.3-1.9,5.3-4.1V1.8c-1.9,0.4-3.9,0.5-5.7,0.5
				C19.9,2.4,18.3,2.1,17.3,1.9z"/>
		</g>
	</g>
	<g>
		<path fill="#FFFFFF" d="M35.2,15.4v24.4c0,1.1-0.8,2-1.8,2H11.9c-1,0-1.8-0.9-1.8-2V15.6"/>
		<path fill="#EF4136" d="M33.3,42.5H11.9c-1.4,0-2.5-1.2-2.5-2.7V15.6h1.3v24.2c0,0.8,0.5,1.4,1.2,1.4h21.4c0.6,0,1.2-0.6,1.2-1.4
			V15.4h1.3v24.4C35.8,41.3,34.7,42.5,33.3,42.5z"/>
	</g>
</g>
</svg>
