<?xml version="1.0" encoding="utf-8"?>
<!-- Generator: Adobe Illustrator 18.1.1, SVG Export Plug-In . SVG Version: 6.00 Build 0)  -->
<!DOCTYPE svg PUBLIC "-//W3C//DTD SVG 1.1//EN" "http://www.w3.org/Graphics/SVG/1.1/DTD/svg11.dtd">
<svg version="1.1" id="Layer_1" xmlns="http://www.w3.org/2000/svg" xmlns:xlink="http://www.w3.org/1999/xlink" x="0px" y="0px"
	 viewBox="0 0 32.9 29" enable-background="new 0 0 32.9 29" xml:space="preserve">
<g>
	<g>
		<circle fill="#744C9F" cx="16.4" cy="25.7" r="3.3"/>
	</g>
	<g>
		<path fill="#744C9F" d="M22.7,20.7c-0.4,0-0.8-0.1-1-0.4c-2.7-2.7-7.5-2.8-10.3-0.1c-0.6,0.6-1.5,0.5-2.1-0.1
			c-0.6-0.6-0.5-1.5,0.1-2.1c1.9-1.8,4.5-2.8,7.1-2.8c2.8,0,5.4,1.1,7.3,3c0.6,0.6,0.6,1.5,0,2.1C23.4,20.5,23,20.7,22.7,20.7z"/>
	</g>
	<g>
		<path fill="#744C9F" d="M27,14.9c-0.4,0-0.8-0.1-1-0.4c-2.6-2.6-6-4-9.6-4c-3.5,0-6.9,1.4-9.5,3.8c-0.6,0.6-1.5,0.6-2.1,0
			c-0.6-0.6-0.5-1.5,0-2.1c3.1-3,7.2-4.6,11.5-4.6c4.4,0,8.6,1.7,11.7,4.8c0.6,0.6,0.6,1.5,0,2.1C27.8,14.7,27.4,14.9,27,14.9z"/>
	</g>
	<g>
		<path fill="#744C9F" d="M31.5,9.2c-0.4,0-0.8-0.1-1-0.4C26.7,5,21.7,3,16.4,3c-5.2,0-10.1,2-13.8,5.6C1.9,9.1,1,9.1,0.4,8.5
			c-0.6-0.6-0.5-1.5,0-2.1C4.7,2.3,10.4,0,16.4,0c6.1,0,11.8,2.4,16.2,6.7c0.6,0.6,0.6,1.5,0,2.1C32.2,9.1,31.8,9.2,31.5,9.2z"/>
	</g>
</g>
</svg>
